<?xml version="1.0" encoding="UTF-8" standalone="no"?>
<!-- Created with Inkscape (http://www.inkscape.org/) -->

<svg
   width="122.73734mm"
   height="27.289244mm"
   viewBox="0 0 122.73733 27.289244"
   version="1.1"
   id="svg1"
   xml:space="preserve"
   xmlns="http://www.w3.org/2000/svg"
   xmlns:svg="http://www.w3.org/2000/svg"><defs
     id="defs1" /><g
     id="layer1"
     transform="translate(-20.622932,-99.24222)"><path
       style="fill:#000000"
       d="m 134.23616,123.13954 c -4.07458,-1.84944 -9.01851,-4.0748 -10.98651,-4.94524 l -3.57817,-1.58261 -10.18016,4.69209 c -5.59909,2.58065 -10.43347,4.69964 -10.743074,4.70886 -0.717593,0.0214 -1.222182,-0.58202 -1.11104,-1.32863 0.07155,-0.48062 1.311814,-1.14192 7.191704,-3.83457 3.90789,-1.78958 7.14648,-3.29501 7.19686,-3.3454 0.0504,-0.0504 -2.66576,-1.5163 -6.03588,-3.25759 -6.559124,-3.38901 -19.843795,-10.4022 -22.024561,-11.62712 l -1.322916,-0.74308 -9.392708,5.15659 c -5.16599,2.83612 -10.44622,5.72336 -11.733847,6.41609 l -2.341138,1.2595 3.238588,1.8024 c 11.358026,6.32118 13.49619,7.57793 13.638263,8.01619 0.164132,0.50631 -0.542383,1.5024 -1.065638,1.5024 -0.164133,0 -6.366356,-3.3877 -13.782718,-7.52821 -13.344715,-7.45028 -13.491149,-7.52367 -14.146506,-7.08964 -0.640412,0.42413 -18.928354,11.31924 -23.081376,13.75082 -1.986493,1.16308 -2.065691,1.18533 -2.711979,0.76186 -0.825801,-0.54108 -0.856919,-1.35255 -0.07042,-1.83626 5.681791,-3.49444 26.269716,-15.52107 26.56991,-15.52107 0.224849,0 2.330672,1.08595 4.679608,2.41321 l 4.270792,2.41322 2.645834,-1.39964 c 1.455208,-0.76981 7.28927,-3.95381 12.964582,-7.07557 l 10.31875,-5.67592 0.791405,0.453327 c 1.666136,0.954383 15.179181,8.092463 23.153385,12.230453 l 8.33438,4.32489 2.39446,-1.07859 2.39445,-1.07859 8.32117,3.6917 c 15.52062,6.88576 15.31759,6.78471 15.32857,7.6298 0.006,0.46878 -0.76749,1.14719 -1.27162,1.11516 -0.24426,-0.0155 -3.77787,-1.54139 -7.85245,-3.39083 z"
       id="path25" /></g></svg>
