<?xml version="1.0" encoding="UTF-8" standalone="no"?>
<!-- Created with Inkscape (http://www.inkscape.org/) -->

<svg
   width="57.866726mm"
   height="7.4452105mm"
   viewBox="0 0 57.866725 7.4452104"
   version="1.1"
   id="svg1"
   xmlns="http://www.w3.org/2000/svg"
   xmlns:svg="http://www.w3.org/2000/svg">
  <defs
     id="defs1" />
  <g
     id="layer1"
     transform="translate(-75.262918,-145.54173)">
    <path
       style="display:inline;fill:#000000;stroke-width:0.0587131"
       d="m 89.415008,151.85996 c -0.50586,-0.48899 -1.11967,-1.07735 -1.36399,-1.30748 l -0.44425,-0.41843 -1.26388,1.24055 c -1.27905,1.25542 -1.37237,1.32969 -1.44306,1.14833 -0.11221,-0.28795 -0.0548,-0.37218 0.86421,-1.26846 0.48518,-0.47314 0.88725,-0.87117 0.89351,-0.88449 0.007,-0.0133 -0.33096,-0.4009 -0.74937,-0.86128 -0.81433,-0.89601 -2.46365,-2.75024 -2.7344,-3.0741 l -0.16424,-0.19646 -1.16612,1.36336 c -0.64137,0.74984 -1.29692,1.51319 -1.45678,1.69635 l -0.29065,0.333 0.40207,0.47653 c 1.81586,2.15214 1.77676,2.09589 1.65529,2.38174 -0.0855,0.20123 -0.0126,0.27622 -1.80553,-1.8555 -1.65677,-1.96978 -1.67495,-1.98918 -1.75631,-1.87443 -0.0795,0.11213 -2.35,2.99269 -2.8656,3.63559 -0.31017,0.38672 -0.64646,0.11019 -0.34544,-0.28406 0.7054,-0.9239 3.26144,-4.10363 3.29871,-4.10363 0.028,0 0.28935,0.28711 0.58098,0.63803 l 0.53022,0.63804 0.32849,-0.37006 c 0.18067,-0.20353 0.90498,-1.04535 1.60958,-1.87071 l 1.28109,-1.50066 0.0983,0.11985 c 0.20686,0.25233 1.88453,2.13957 2.87454,3.23362 l 1.03473,1.14346 0.29727,-0.28517 0.29728,-0.28517 1.0331,0.97605 c 1.92691,1.82053 1.90171,1.79381 1.90306,2.01725 8.4e-4,0.12394 -0.0953,0.30331 -0.15787,0.29484 -0.0304,-0.004 -0.46903,-0.40753 -0.9749,-0.8965 z"
       id="path25" />
    <path
       d="m 141.47592,100.81243 q -0.43815,0 -0.7874,-0.1524 -0.3429,-0.15875 -0.53975,-0.4318 -0.19685,-0.279398 -0.2032,-0.641347 h 0.61595 q 0.0317,0.311149 0.254,0.527047 0.2286,0.20955 0.6604,0.20955 0.41275,0 0.6477,-0.2032 0.2413,-0.209548 0.2413,-0.533397 0,-0.254 -0.1397,-0.41275 -0.1397,-0.15875 -0.34925,-0.2413 -0.20955,-0.08255 -0.56515,-0.1778 -0.43815,-0.1143 -0.70485,-0.2286 -0.26035,-0.1143 -0.45085,-0.3556 -0.18415,-0.24765 -0.18415,-0.6604 0,-0.36195 0.18415,-0.64135 0.18415,-0.2794 0.51435,-0.4318 0.33655,-0.1524 0.76835,-0.1524 0.6223,0 1.016,0.31115 0.40005,0.31115 0.45085,0.8255 h -0.635 q -0.0317,-0.254 -0.2667,-0.4445 -0.23495,-0.19685 -0.6223,-0.19685 -0.36195,0 -0.59055,0.1905 -0.2286,0.18415 -0.2286,0.5207 0,0.2413 0.13335,0.3937 0.1397,0.1524 0.33655,0.23495 0.2032,0.0762 0.56515,0.1778 0.43815,0.12065 0.70485,0.2413 0.2667,0.1143 0.4572,0.36195 0.1905,0.2413 0.1905,0.6604 0,0.323849 -0.17145,0.609597 -0.17145,0.28575 -0.508,0.46355 -0.33655,0.1778 -0.79375,0.1778 z m 3.84175,0.0127 q -0.48895,0 -0.889,-0.22225 -0.3937,-0.22225 -0.6223,-0.628648 -0.22225,-0.412749 -0.22225,-0.952499 0,-0.5334 0.2286,-0.9398 0.23495,-0.41275 0.635,-0.62865 0.40005,-0.22225 0.89535,-0.22225 0.4953,0 0.89535,0.22225 0.40005,0.2159 0.62865,0.6223 0.23495,0.4064 0.23495,0.94615 0,0.53975 -0.2413,0.952499 -0.23495,0.406398 -0.64135,0.628648 -0.4064,0.22225 -0.9017,0.22225 z m 0,-0.508 q 0.31115,0 0.5842,-0.14605 0.27305,-0.14605 0.43815,-0.438148 0.17145,-0.292099 0.17145,-0.711199 0,-0.4191 -0.1651,-0.7112 -0.1651,-0.2921 -0.4318,-0.4318 -0.2667,-0.14605 -0.57785,-0.14605 -0.3175,0 -0.5842,0.14605 -0.26035,0.1397 -0.4191,0.4318 -0.15875,0.2921 -0.15875,0.7112 0,0.42545 0.1524,0.717549 0.15875,0.292098 0.4191,0.438148 0.26035,0.1397 0.5715,0.1397 z m 5.63244,-3.028947 v 3.479797 h -0.57785 v -0.51435 q -0.1651,0.2667 -0.46355,0.4191 -0.2921,0.14605 -0.6477,0.14605 -0.4064,0 -0.73025,-0.1651 -0.32385,-0.17145 -0.51435,-0.508 -0.18415,-0.336548 -0.18415,-0.819147 v -2.03835 h 0.5715 v 1.96215 q 0,0.514349 0.26035,0.793747 0.26035,0.27305 0.7112,0.27305 0.46355,0 0.73025,-0.28575 0.2667,-0.285748 0.2667,-0.831847 v -1.91135 z m 1.68275,0.47625 v 2.051049 q 0,0.253998 0.10795,0.361948 0.10795,0.1016 0.37465,0.1016 h 0.42545 v 0.48895 h -0.5207 q -0.4826,0 -0.7239,-0.22225 -0.2413,-0.22225 -0.2413,-0.730248 v -2.051049 h -0.45085 v -0.47625 h 0.45085 v -0.8763 h 0.57785 v 0.8763 h 0.90805 v 0.47625 z m 3.33375,-0.53975 q 0.3937,0 0.7112,0.17145 0.3175,0.1651 0.4953,0.50165 0.18415,0.33655 0.18415,0.81915 v 2.051047 h -0.5715 v -1.968497 q 0,-0.5207 -0.26035,-0.79375 -0.26035,-0.2794 -0.7112,-0.2794 -0.4572,0 -0.73025,0.28575 -0.2667,0.28575 -0.2667,0.83185 v 1.924047 h -0.57785 v -4.698997 h 0.57785 v 1.7145 q 0.17145,-0.2667 0.4699,-0.41275 0.3048,-0.14605 0.67945,-0.14605 z m 7.4422,-0.88265 v 4.425947 h -0.57785 v -2.006597 h -2.25425 v 2.006597 h -0.57785 v -4.425947 h 0.57785 v 1.9431 h 2.25425 v -1.9431 z m 1.28269,0.381 q -0.1651,0 -0.2794,-0.1143 -0.1143,-0.1143 -0.1143,-0.2794 0,-0.1651 0.1143,-0.2794 0.1143,-0.1143 0.2794,-0.1143 0.15875,0 0.2667,0.1143 0.1143,0.1143 0.1143,0.2794 0,0.1651 -0.1143,0.2794 -0.10795,0.1143 -0.2667,0.1143 z m 0.2794,0.56515 v 3.479797 h -0.57785 v -3.479797 z m 1.56211,-1.2192 v 4.698997 h -0.57785 v -4.698997 z m 1.5621,0 v 4.698997 h -0.57785 v -4.698997 z m 2.21615,4.756147 q -0.40005,0 -0.71755,-0.13335 -0.3175,-0.1397 -0.50165,-0.381 -0.18415,-0.24765 -0.2032,-0.565148 h 0.5969 q 0.0254,0.260348 0.2413,0.425448 0.22225,0.1651 0.57785,0.1651 0.3302,0 0.5207,-0.14605 0.1905,-0.14605 0.1905,-0.368298 0,-0.228599 -0.2032,-0.336549 -0.2032,-0.1143 -0.62865,-0.22225 -0.38735,-0.1016 -0.635,-0.2032 -0.2413,-0.10795 -0.4191,-0.31115 -0.17145,-0.20955 -0.17145,-0.5461 0,-0.2667 0.15875,-0.48895 0.15875,-0.22225 0.45085,-0.34925 0.2921,-0.13335 0.66675,-0.13335 0.57785,0 0.93345,0.2921 0.3556,0.2921 0.381,0.8001 h -0.57785 q -0.0191,-0.27305 -0.22225,-0.43815 -0.19685,-0.1651 -0.5334,-0.1651 -0.31115,0 -0.4953,0.13335 -0.18415,0.13335 -0.18415,0.34925 0,0.17145 0.10795,0.28575 0.1143,0.10795 0.2794,0.1778 0.17145,0.0635 0.4699,0.14605 0.37465,0.1016 0.6096,0.2032 0.23495,0.09525 0.40005,0.2921 0.17145,0.19685 0.1778,0.514349 0,0.285748 -0.15875,0.514348 -0.15875,0.2286 -0.45085,0.36195 -0.28575,0.127 -0.6604,0.127 z m 8.2677,-4.451347 v 4.394197 h -0.57785 v -3.276597 l -1.4605,3.276597 h -0.4064 l -1.46685,-3.282947 v 3.282947 h -0.57785 v -4.394197 h 0.6223 l 1.6256,3.632197 1.6256,-3.632197 z m 4.1529,2.52095 q 0,0.1651 -0.0191,0.34925 h -2.7813 q 0.0317,0.514349 0.34925,0.806447 0.32385,0.28575 0.78105,0.28575 0.37465,0 0.6223,-0.17145 0.254,-0.177798 0.3556,-0.469898 h 0.6223 q -0.1397,0.501648 -0.5588,0.819148 -0.4191,0.31115 -1.0414,0.31115 -0.4953,0 -0.889,-0.22225 -0.38735,-0.22225 -0.6096,-0.628648 -0.22225,-0.412749 -0.22225,-0.952499 0,-0.53975 0.2159,-0.94615 0.2159,-0.4064 0.60325,-0.6223 0.3937,-0.22225 0.9017,-0.22225 0.4953,0 0.8763,0.2159 0.381,0.2159 0.5842,0.5969 0.20955,0.37465 0.20955,0.8509 z m -0.5969,-0.12065 q 0,-0.3302 -0.14605,-0.56515 -0.14605,-0.2413 -0.40005,-0.36195 -0.24765,-0.127 -0.55245,-0.127 -0.43815,0 -0.7493,0.2794 -0.3048,0.2794 -0.34925,0.7747 z m 1.143,0.2413 q 0,-0.5334 0.2159,-0.93345 0.2159,-0.4064 0.59055,-0.62865 0.381,-0.22225 0.8509,-0.22225 0.4064,0 0.75565,0.1905 0.34925,0.18415 0.5334,0.48895 v -1.8415 h 0.5842 v 4.698997 h -0.5842 v -0.65405 q -0.17145,0.31115 -0.508,0.51435 -0.33655,0.19685 -0.7874,0.19685 -0.46355,0 -0.84455,-0.2286 -0.37465,-0.2286 -0.59055,-0.641348 -0.2159,-0.412749 -0.2159,-0.939799 z m 2.9464,0.0063 q 0,-0.3937 -0.15875,-0.6858 -0.15875,-0.2921 -0.4318,-0.4445 -0.2667,-0.15875 -0.59055,-0.15875 -0.32385,0 -0.59055,0.1524 -0.2667,0.1524 -0.42545,0.4445 -0.15875,0.2921 -0.15875,0.6858 0,0.40005 0.15875,0.698499 0.15875,0.292098 0.42545,0.450848 0.2667,0.1524 0.59055,0.1524 0.32385,0 0.59055,-0.1524 0.27305,-0.15875 0.4318,-0.450848 0.15875,-0.298449 0.15875,-0.692149 z m 1.86056,-2.2987 q -0.1651,0 -0.2794,-0.1143 -0.1143,-0.1143 -0.1143,-0.2794 0,-0.1651 0.1143,-0.2794 0.1143,-0.1143 0.2794,-0.1143 0.15875,0 0.2667,0.1143 0.1143,0.1143 0.1143,0.2794 0,0.1651 -0.1143,0.2794 -0.10795,0.1143 -0.2667,0.1143 z m 0.2794,0.56515 v 3.479797 h -0.57785 v -3.479797 z m 0.76835,1.73355 q 0,-0.53975 0.2159,-0.9398 0.2159,-0.4064 0.5969,-0.62865 0.38735,-0.22225 0.88265,-0.22225 0.64135,0 1.0541,0.31115 0.4191,0.31115 0.55245,0.8636 h -0.6223 q -0.0889,-0.3175 -0.34925,-0.50165 -0.254,-0.18415 -0.635,-0.18415 -0.4953,0 -0.8001,0.3429 -0.3048,0.33655 -0.3048,0.95885 0,0.628649 0.3048,0.971549 0.3048,0.342898 0.8001,0.342898 0.381,0 0.635,-0.1778 0.254,-0.177798 0.34925,-0.507998 h 0.6223 q -0.1397,0.533398 -0.5588,0.857248 -0.4191,0.3175 -1.04775,0.3175 -0.4953,0 -0.88265,-0.22225 -0.381,-0.22225 -0.5969,-0.628648 -0.2159,-0.406399 -0.2159,-0.952499 z m 4.3688,-2.2987 q -0.1651,0 -0.2794,-0.1143 -0.1143,-0.1143 -0.1143,-0.2794 0,-0.1651 0.1143,-0.2794 0.1143,-0.1143 0.2794,-0.1143 0.15875,0 0.2667,0.1143 0.1143,0.1143 0.1143,0.2794 0,0.1651 -0.1143,0.2794 -0.10795,0.1143 -0.2667,0.1143 z m 0.2794,0.56515 v 3.479797 h -0.57785 v -3.479797 z m 2.6797,-0.0635 q 0.635,0 1.0287,0.38735 0.3937,0.381 0.3937,1.1049 v 2.051047 h -0.5715 v -1.968497 q 0,-0.5207 -0.26035,-0.79375 -0.26035,-0.2794 -0.7112,-0.2794 -0.4572,0 -0.73025,0.28575 -0.2667,0.28575 -0.2667,0.83185 v 1.924047 h -0.57785 v -3.479797 h 0.57785 v 0.4953 q 0.17145,-0.2667 0.46355,-0.41275 0.29845,-0.14605 0.65405,-0.14605 z m 5.54355,1.67005 q 0,0.1651 -0.019,0.34925 h -2.7813 q 0.0318,0.514349 0.34925,0.806447 0.32385,0.28575 0.78105,0.28575 0.37465,0 0.6223,-0.17145 0.254,-0.177798 0.3556,-0.469898 h 0.6223 q -0.1397,0.501648 -0.5588,0.819148 -0.4191,0.31115 -1.0414,0.31115 -0.4953,0 -0.889,-0.22225 -0.38735,-0.22225 -0.6096,-0.628648 -0.22225,-0.412749 -0.22225,-0.952499 0,-0.53975 0.2159,-0.94615 0.2159,-0.4064 0.60325,-0.6223 0.3937,-0.22225 0.9017,-0.22225 0.4953,0 0.8763,0.2159 0.381,0.2159 0.5842,0.5969 0.20955,0.37465 0.20955,0.8509 z m -0.5969,-0.12065 q 0,-0.3302 -0.14605,-0.56515 -0.14605,-0.2413 -0.40005,-0.36195 -0.24765,-0.127 -0.55245,-0.127 -0.43815,0 -0.7493,0.2794 -0.3048,0.2794 -0.34925,0.7747 z"
       id="text1"
       style="font-size:6.35px;font-family:Poppins;-inkscape-font-specification:'Poppins, Normal';fill-opacity:0.789104;stroke-width:0.474723"
       transform="scale(0.65904403,1.5173493)"
       aria-label="South Hills Medicine" />
  </g>
</svg>
